<svg width="470" height="195" viewBox="0 0 470 195" fill="none" xmlns="http://www.w3.org/2000/svg" role="img" aria-labelledby="title desc">
  <title id="title">Evan's Most Used Languages</title>
  <desc id="desc">A compact most-used-languages card for Evan1108-Coder public repositories.</desc>
  <style>
    .card { fill: #0d1117; }
    .title { fill: #1f6feb; font: 700 24px Arial, sans-serif; }
    .text { fill: #4b9aaa; font: 500 17px Arial, sans-serif; }
    .bar-bg { fill: #30363d; }
  </style>
  <rect class="card" width="470" height="195" rx="10"/>
  <text class="title" x="28" y="42">Evan's Most Used Languages</text>

  <rect class="bar-bg" x="28" y="68" width="414" height="11" rx="5.5"/>
  <rect x="28.0" y="68" width="218.0" height="11" rx="5.5" fill="#3178c6"/>
  <rect x="246.0" y="68" width="95.0" height="11" fill="#f1e05a"/>
  <rect x="341.0" y="68" width="75.3" height="11" fill="#3572A5"/>
  <rect x="416.4" y="68" width="14.6" height="11" fill="#b07219"/>
  <rect x="430.9" y="68" width="10.5" height="11" fill="#663399"/>
  <rect x="441.5" y="68" width="0.5" height="11" fill="#e34c26"/>

  <circle cx="38" cy="112" r="7" fill="#3178c6"/>
  <text class="text" x="54" y="118">TypeScript 52.66%</text>

  <circle cx="258" cy="112" r="7" fill="#f1e05a"/>
  <text class="text" x="274" y="118">JavaScript 22.96%</text>

  <circle cx="38" cy="145" r="7" fill="#3572A5"/>
  <text class="text" x="54" y="151">Python 18.19%</text>

  <circle cx="258" cy="145" r="7" fill="#b07219"/>
  <text class="text" x="274" y="151">Java 3.53%</text>

  <circle cx="38" cy="178" r="7" fill="#663399"/>
  <text class="text" x="54" y="184">CSS 2.55%</text>

  <circle cx="258" cy="178" r="7" fill="#e34c26"/>
  <text class="text" x="274" y="184">HTML 0.12%</text>
</svg>
